# xmcd
# 
# Track frame offsets:
#     150
#     17350
#     38200
#     56232
#     80587
#     98250
#     115257
#     136677
#     152637
#     172577
# 
# Disc length: 2649
# 
# Revision: 5
# Processed by: cddbd v1.5.2PL0 Copyright (c) Steve Scherf et al.
# Submitted via: fre:ac v1.0.17
# 
DISCID=670a570a
DTITLE=小比類巻かほる - I'm Here
DYEAR=0
DGENRE=Pop
TTITLE0=PARTY
TTITLE1=Hold On Me
TTITLE2=Night Clubbing
TTITLE3=悲しき Moon Light !
TTITLE4=Stranger's City
TTITLE5=Happy Birthday
TTITLE6=オーロラの瞳
TTITLE7=二人のゼネレーション
TTITLE8=GRAVITATION
TTITLE9=I'm Here
EXTD=
EXTT0=
EXTT1=
EXTT2=
EXTT3=
EXTT4=
EXTT5=
EXTT6=
EXTT7=
EXTT8=
EXTT9=
PLAYORDER=
